<svg width="241" height="143" fill="none" xmlns="http://www.w3.org/2000/svg"><path d="M117.161 68.103H92.648a6.237 6.237 0 0 0-6.237 6.237v68.053h36.615V74.315a6.142 6.142 0 0 0-5.865-6.212Z" fill="#2196F3"/><path opacity=".5" d="M117.161 68.103H92.648a6.237 6.237 0 0 0-6.237 6.237v68.053h36.615V74.315a6.142 6.142 0 0 0-5.865-6.212Z" fill="#fff"/><path opacity=".6" d="M92.673 68.103a6.237 6.237 0 0 0-6.237 6.237v68.053H98.91V74.315a6.237 6.237 0 0 0-6.237-6.212Z" fill="#fff"/><path d="M235.595 52H130.076a5.115 5.115 0 0 0-5.116 5.11l-6.93 44.257h115.731l6.93-44.258A5.107 5.107 0 0 0 235.595 52Z" fill="#2196F3"/><path opacity=".4" d="M235.595 52H130.076a5.115 5.115 0 0 0-5.116 5.11l-6.93 44.257h115.731l6.93-44.258A5.107 5.107 0 0 0 235.595 52Z" fill="#fff"/><path opacity=".2" d="M223.537 102.022h10.224l6.93-44.913a5.112 5.112 0 0 0-3.158-4.722 5.11 5.11 0 0 0-7.066 4.722l-6.93 44.913Z" fill="#000"/><path d="M207.377 142.393H102.98V96.377h104.397v46.016Z" fill="#2196F3"/><path opacity=".4" d="M207.377 142.393H102.98V96.377h104.397v46.016Z" fill="#fff"/><path d="M217.545 105.639H106.464a6.57 6.57 0 1 1 0-13.142h111.081v13.142Z" fill="#2196F3"/><path opacity=".6" d="M217.545 105.639H106.464a6.57 6.57 0 1 1 0-13.142h111.081v13.142Z" fill="#fff"/><path d="M228.665 68.103h-24.501a6.24 6.24 0 0 0-6.243 6.237v68.053h36.609V74.315a6.139 6.139 0 0 0-5.865-6.212Z" fill="#2196F3"/><path opacity=".5" d="M228.665 68.103h-24.501a6.24 6.24 0 0 0-6.243 6.237v68.053h36.609V74.315a6.139 6.139 0 0 0-5.865-6.212Z" fill="#fff"/><path opacity=".6" d="M204.177 68.103a6.245 6.245 0 0 0-6.244 6.237v68.053h12.481V74.315a6.238 6.238 0 0 0-6.237-6.212Z" fill="#fff"/><path d="m138.454 68.04-2.52 3.812s-6.212 2.86-6.533 3.603c-.322.744-1.298 3.232 0 3.358 1.297.126 8.24-2.98 9.027-3.15.788-.17 0-1.556 0-1.556l3.264-4.517-3.238-1.55Z" fill="#FFB573"/><path d="M149.34 34.203c-3.78 4.107-4.782 20.752-6.401 23.587-1.619 2.835-6.483 12.562-6.483 12.562l4.127 1.53s5.903-7.994 8.618-13.103c2.716-5.11 3.396-13.356 4.461-15.536 1.064-2.18-4.322-9.04-4.322-9.04Z" fill="#2196F3"/><path d="m138.567 140.603-4.794.504-1.972-10.344 4.788-.511 1.978 10.351Zm22.724.933-4.687-.183-1.084-10.823 4.694.182 1.077 10.824Z" fill="#FFB573"/><path d="M132.91 137.05h5.701a.413.413 0 0 1 .397.321l.926 4.184a.682.682 0 0 1-.096.521.698.698 0 0 1-.439.298.644.644 0 0 1-.152 0c-1.846 0-3.187-.139-5.506-.139-1.424 0-5.727.145-7.698.145-1.972 0-2.231-1.947-1.424-2.123 3.622-.788 6.344-1.89 7.503-2.917.214-.197.497-.301.788-.29Z" fill="#263238"/><path d="M132.582 137.699a.1.1 0 0 0 .088-.094.098.098 0 0 0-.012-.063.106.106 0 0 0-.044-.045c-.164-.107-1.683-1.039-2.199-.768a.335.335 0 0 0-.195.309.624.624 0 0 0 .233.598c.263.181.582.266.901.239.414-.011.827-.07 1.228-.176Zm-.321-.151a2.315 2.315 0 0 1-1.67-.082.471.471 0 0 1-.125-.183c-.026-.07-.035-.146-.026-.22 0-.088.044-.133.076-.133a.264.264 0 0 1 .138-.031 4.606 4.606 0 0 1 1.588.649h.019Z" fill="#2196F3"/><path d="M132.614 137.724a.109.109 0 0 0 .043-.042.109.109 0 0 0 .013-.059c0-.063-.119-1.417-.661-1.89a.589.589 0 0 0-.473-.138.357.357 0 0 0-.359.289c-.094.498.838 1.531 1.323 1.79h.057a.087.087 0 0 0 .057.05Zm-.75-1.827c.329.422.522.934.554 1.468-.485-.359-1.083-1.147-1.02-1.449 0-.031 0-.113.157-.113h.057a.402.402 0 0 1 .252.094Z" fill="#2196F3"/><path d="M156.012 136.905h5.701a.422.422 0 0 1 .397.328l.926 4.177a.682.682 0 0 1-.096.521.698.698 0 0 1-.439.298h-.152c-1.846-.032-3.187-.145-5.506-.145-1.424 0-5.727.145-7.698.145-1.972 0-2.231-1.941-1.424-2.123 3.622-.788 6.344-1.89 7.503-2.917.217-.192.499-.293.788-.284Z" fill="#263238"/><path d="M155.684 137.56a.106.106 0 0 0 .059-.033.109.109 0 0 0 .017-.126.114.114 0 0 0-.044-.048c-.164-.108-1.682-1.034-2.199-.769a.353.353 0 0 0-.142.126.348.348 0 0 0-.053.183.623.623 0 0 0 .233.598c.264.181.582.266.901.24a5.66 5.66 0 0 0 1.228-.171Zm-.321-.157a2.28 2.28 0 0 1-1.67-.082.482.482 0 0 1-.125-.183c-.026-.07-.035-.146-.026-.22 0-.088.044-.132.076-.132a.269.269 0 0 1 .138 0 4.449 4.449 0 0 1 1.607.617Z" fill="#2196F3"/><path d="M155.716 137.579a.102.102 0 0 0 .043-.042.109.109 0 0 0 .013-.059c0-.063-.119-1.411-.63-1.852a.586.586 0 0 0-.472-.145.36.36 0 0 0-.359.29c-.095.498.838 1.531 1.323 1.796h.056c.008.006.016.01.026.012Zm-.75-1.827c.329.425.522.938.554 1.474-.485-.365-1.083-1.146-1.02-1.455 0 0 0-.113.157-.113h.057a.402.402 0 0 1 .252.094Z" fill="#2196F3"/><path opacity=".2" d="m136.589 130.252-4.788.511 1.02 5.336 4.788-.504-1.02-5.343Zm23.625.467-4.694-.183.561 5.582 4.693.182-.56-5.581Z" fill="#000"/><path d="M186.894 61.135s10.71 32.69-12.411 32.69c-23.121 0-24.973-9.015-23.02-19.624l9.45-.857s1.26-6.86.353-12.335l25.628.126Z" fill="#263238"/><path d="m131.404 135.318 7.913-1.141s-7.113-32.76-4.612-36.382c2.111-3.024 14.421-2.904 28.539-3.61l8.297-.416c18.403-.964-20.072-19.637-20.072-19.637s-24.645 1.033-31.071 9.513c-5.91 7.768 11.006 51.673 11.006 51.673Z" fill="#263238"/><path opacity=".2" d="m139.398 134.297-.081-.12s-7.113-32.76-4.612-36.382c2.11-3.024 14.421-2.904 28.539-3.61l1.657-4.838-10.54-12.266s-17.186.762-21.691 9.777c-4.504 9.016 6.728 47.439 6.728 47.439Z" fill="#000"/><path d="M142.322 83.645c3.603-4.75 12.921-7.163 20.418-8.366l10.836 18.54c-11.34.467-16.14 2.23-16.38 3.283-1.222 5.04 5.878 37.592 5.878 37.592h-8.247s-18.937-42.57-12.505-51.049Z" fill="#263238"/><path d="M174.691 31.248s-16.733-6.168-25.351 2.955c0 0 10.71 27.581 11.548 31.834l28.526-1.122s-6.703-19.675-14.723-33.667Z" fill="#2196F3"/><path opacity=".6" d="M149.34 34.203s3.56 9.166 6.735 17.74c1.619 4.379 3.15 8.606 4.038 11.385.391 1.222.668 2.16.775 2.709l28.526-1.122s-1.153-3.377-3.068-8.328a298.181 298.181 0 0 0-2.381-5.948 175.797 175.797 0 0 0-9.274-19.391s-16.733-6.168-25.351 2.955Z" fill="#fff"/><path opacity=".6" d="M156.075 51.943c1.619 4.379 3.15 8.606 4.038 11.385l2.073-5.003 7.938 4.662 3.446-5.903 10.615 5.04 2.161-5.538a298.181 298.181 0 0 0-2.381-5.947l-6.262-3.017-4.133 7.05-9.198-5.299-2.369 7.132-5.928-4.562Z" fill="#fff"/><path d="M156.642 34.713c5.386 4.02 9.015-4.643 9.015-4.643a9.69 9.69 0 0 1-2.974-1.185c-.806-.56-1.814-2.677-2.923-6.3h-7.169c1.55 2.256 3.78 6.023 4.271 9.148a5.538 5.538 0 0 1-.22 2.98Z" fill="#FFB573"/><path d="M164.901 29.282s-2.306 4.064-5.783 6.06c0 0-2.294-2.576-2.634-5.222 0 0-2.52 4.152-.296 11.107l2.93-4.624 3.364 3.648s8.435-7.598 2.419-10.969Z" fill="#2196F3"/><path d="m162.047 69.319-2.488 3.78s-6.218 2.866-6.533 3.61c-.315.743-1.305 3.232 0 3.358 1.304.126 8.234-2.98 9.021-3.15.788-.17 0-1.556 0-1.556l3.27-4.543-3.27-1.5Z" fill="#FFB573"/><path d="M174.691 31.248c-5.531-.8-6.533 24.986-8.158 27.814-1.626 2.83-6.477 12.6-6.477 12.6l4.127 1.481s6.672-8.284 9.387-13.394c2.715-5.11 5.538-14.572 5.67-19.7.088-2.488-1.178-8.31-4.549-8.801Z" fill="#2196F3"/><path opacity=".2" d="M152.585 22.523c1.549 2.255 3.78 6.022 4.271 9.147a12.088 12.088 0 0 0 2.904-9.129l-7.175-.018Z" fill="#000"/><path d="M146.996 11.056s-2.274 6.571.832 9.835c3.106 3.263 5.437-9.324 5.437-9.324l-6.269-.51Z" fill="#263238"/><path d="M157.265 28.193a6.23 6.23 0 0 1-7.49 1.077 6.96 6.96 0 0 1-3.522-4.605c-1.008-4.46-.233-11.794 4.637-13.697a6.75 6.75 0 0 1 7.348 1.565 6.758 6.758 0 0 1 1.434 2.215c.4.986.558 2.053.46 3.113-.353 4.926-.328 7.843-2.867 10.332Z" fill="#FFB573"/><path d="M152.61 19.14c0 .396-.221.724-.485.718-.265-.007-.473-.334-.467-.738.007-.403.221-.724.486-.718.264.006.472.328.466.737Zm-4.549-.064c0 .404-.227.725-.491.725-.265 0-.467-.34-.467-.737 0-.397.227-.725.486-.725.258 0 .472.36.472.738Z" fill="#263238"/><path d="M149.504 19.297a14.313 14.313 0 0 1-1.972 3.415 2.35 2.35 0 0 0 1.934.39l.038-3.805Z" fill="#DC5753"/><path d="M151.488 16.575a.265.265 0 0 1 .246 0 1.888 1.888 0 0 0 1.669.34.232.232 0 0 1 .255.06.24.24 0 0 1 .042.26.231.231 0 0 1-.133.121 2.342 2.342 0 0 1-2.117-.397.241.241 0 0 1-.097-.152.237.237 0 0 1 .041-.175.534.534 0 0 1 .094-.057Zm1.682 7.327a3.648 3.648 0 0 0-3.15 1.128.126.126 0 0 0 0 .176.13.13 0 0 0 .039.027.124.124 0 0 0 .092 0 .115.115 0 0 0 .039-.027 3.484 3.484 0 0 1 2.93-1.04.126.126 0 0 0 .139-.1.127.127 0 0 0-.002-.047.116.116 0 0 0-.02-.044.112.112 0 0 0-.035-.032.112.112 0 0 0-.044-.016l.012-.025Zm-4.674-7.56c.046.007.09.027.126.057a.243.243 0 0 1 .041.178.25.25 0 0 1-.098.156 2.349 2.349 0 0 1-2.136.327.247.247 0 0 1-.132-.308.24.24 0 0 1 .302-.126 1.89 1.89 0 0 0 1.689-.29.253.253 0 0 1 .208.006Zm11.818 7.592-1.152-.038c.239-1.361.195-2.52-.145-2.659-.662-.233-.75.56-.75.56-1.336-1.215-2.199-4.12-1.386-5.909a1.629 1.629 0 0 0-.693-2.091l.397-2.155s4.303-.926 5.563 1.02c1.26 1.948.397 4.934-.876 8.884a18.324 18.324 0 0 1-.958 2.388Z" fill="#263238"/><path d="M162.236 21.937a4.688 4.688 0 0 1-2.728 2.343c-1.568.504-2.413-.888-2.035-2.406.353-1.342 1.582-3.27 3.188-3.1 1.607.17 2.256 1.79 1.575 3.163Z" fill="#FFB573"/><path d="M160.699 12.398s1.033-2.646-2.041-4.68a9.924 9.924 0 0 0-10.225-.328c-2.942 1.751-4.083 5.6-4.083 5.6a2.217 2.217 0 0 1 2.136.095l-.416 1.335a4.558 4.558 0 0 1 2.589-.995l-.995 1.26a24.258 24.258 0 0 1 8.518-.888l4.517-1.399Z" fill="#263238"/><path d="m76.11 100.158 5.179 12.965 3.087 7.724h3.742l-2.463-9.116-4.02-14.88-5.525 3.307Z" fill="#FFB573"/><path opacity=".2" d="m76.11 100.158 5.179 12.965 4.365-1.392-4.019-14.88-5.525 3.307Z" fill="#000"/><path d="m59.604 111.712-1.947 13.822-1.159 8.234 3.251 1.865 2.388-9.135 3.906-14.912-6.439.126Z" fill="#FFB573"/><path opacity=".2" d="m59.604 111.712-1.947 13.822 4.48.964 3.906-14.912-6.439.126Z" fill="#000"/><path d="m65.829 39.08 17.438-.36L68.09 55.988l-16.317-1.083L65.83 39.079Z" fill="#2196F3"/><path opacity=".3" d="m65.829 39.08 17.438-.36L68.09 55.988l-16.317-1.083L65.83 39.079Z" fill="#fff"/><path d="m66.22 40.963 13.456-.271-11.718 13.324-12.594-.838L66.22 40.963Z" fill="#fff"/><path d="m64.355 30.146 4.514 12.998-.536.186-4.514-12.997.536-.186Z" fill="#263238"/><path d="m68.966 44.333-.63-1.014a.542.542 0 0 1 .535-.189l.095 1.203Z" fill="#2196F3"/><path d="M68.833 44.088c0-.07.07-.082.127-.044l.031.29-.158-.246Z" fill="#263238"/><path d="m56.996 45.228 3.622-4.114a6.09 6.09 0 0 1 .492-1.304c.371-.75 3.78-2.867 5.002-3.301 1.222-.435 4.782 2.866 4.467 3.364-.315.498-4.857 3.446-5.916 3.37l-1.058-.069-4.114 5.11-2.495-3.056Z" fill="#FFB573"/><path d="M44.484 13.873a2.262 2.262 0 1 0-2.109-1.387 2.269 2.269 0 0 0 2.11 1.387Zm0-3.925a1.669 1.669 0 1 1-1.65 1.67 1.657 1.657 0 0 1 1.65-1.67Z" fill="#263238"/><path d="M36.288 21.25c.697.244 1.424.39 2.16.435 1.5 0 2.684-.183 3.617-.832 2.104-1.461 2.866-4.693 2.923-8.694.088-5.216-1.405-8.051-6.816-8.486-8.978-.718-10.893 14.963-1.884 17.577Z" fill="#FFB573"/><path opacity=".2" d="M33.976 18.837a10.924 10.924 0 0 0 4.473 2.848c1.5 0 2.684-.177 3.616-.825-2.71-2.06-8.09-2.023-8.09-2.023Z" fill="#000"/><path d="M41.826 6.395s2.759 5.229-1.947 8.19c0 0-3.22 4.977-8.41 4.309-5.192-.668-8.273-8.19-4.839-14.774 3.276-6.25 14.32-2.797 14.32-2.797 4.725-1.99 6.646 3.724 3.15 5.506a3.931 3.931 0 0 0-2.274-.434Z" fill="#2E353A"/><path d="M41.775 13.028a2.313 2.313 0 0 0-2.318-2.431c-1.708.082-2.892 3.622 1.197 4.763.592.163.989-.429 1.121-2.332Z" fill="#FFB573"/><path d="M45.026 4.032s.53 2.52-3.226 6.565a25.951 25.951 0 0 1-8.605 5.884L34 .365l8.851.542 2.174 3.125Z" fill="#2E353A"/><path d="M41.775 11.189h4.719v.624h-4.719v-.624Z" fill="#263238"/><path d="M36.754 30.083c-3.944.453-9.072-2.363-9.072-2.363 3.723-2.388 4.29-8.883 4.29-8.883 3.61-1.398 6.395 1.89 6.395 1.89a15.433 15.433 0 0 0-.63 2.381c-.63 3.472 1.064 3.78 1.064 3.78.75 2.004-1.045 3.081-2.047 3.195Z" fill="#FFB573"/><path d="m39.828 26.006-1.801-2.709c-3.182-2.444-7.617-1.58-7.617-1.58l-2.482 4.353s8.278.34 11.9-.064Z" fill="#2196F3"/><path d="M41.013 50.362c4.82-.913 9.28-2.28 9.28-2.28l1.26 3.049A92.658 92.658 0 0 1 41 55.308l.013-4.946Z" fill="#FFB573"/><path d="M19.763 35.898c.038-4.732 1.493-5.89 1.493-5.89l2.659 6.765-.775 18.541s-3.409-14.679-3.377-19.416Z" fill="#2196F3"/><path d="M22.346 55.176c-.995.258.939-15.958-1.115-25.2 0 0 1.556-2.69 7.63-4.41 7.055-1.991 15.787 1.423 18.452 2.431 0 0 1.82 14.957-3.95 28.64.025.044-7.661-.132-21.017-1.461Z" fill="#2196F3"/><path opacity=".2" d="M22.346 55.176c-.718.12.756-16.09-1.115-25.2 0 0 1.556-2.69 7.63-4.41 7.055-1.991 15.787 1.423 18.452 2.431 0 0 1.82 14.957-3.95 28.64.025.044-7.661-.132-21.017-1.461Z" fill="#000"/><path d="M49.518 48.315s5.04-2.167 6.823-2.627c1.783-.46 1.89 5.128 1.127 5.953-.762.826-7.56.8-8.038 0-.48-.8.088-3.326.088-3.326Z" fill="#FFB573"/><path d="M95.18 126.309a6.125 6.125 0 0 0-2.016-.479s-2.419-1.323-4.82-6.47h-2.696a2.213 2.213 0 0 0-2.066 1.386 1.09 1.09 0 0 0-.076.347c.027.606.094 1.21.202 1.808.4 1.999.928 3.971 1.581 5.903l.454-.107-.832-3.749c-.277-1.26 1.16-.044 1.827 1.26.668 1.304 1.689 2.577 4.662 1.941 3.471-.794 4.87-1.26 3.78-1.84Z" fill="#2E353A"/><path d="M83.506 120.79c-.51-1.216-1.159-3.389-1.159-3.389l5.771-.75s0 2.64 1.071 4.372c-3.018 0-5.683-.233-5.683-.233ZM32.514 17.439a5.392 5.392 0 0 0-5.33-4.152c-4.56-.151-3.818 3.78-5.096 4.593-1.28.812-2.067.201-3.024 1.436-.958 1.235.529 2.665.478 3.9-.05 1.235-1.7 1.487-1.7 3.15 0 1.663 1.89 1.827 2.601 3.855.712 2.029-.58 2.186-.58 3.365 0 1.178.423 1.921 2.017 1.89 0 0-1.317-.693-.448-1.48.87-.788 3.119-1.532 3.749-3.113.63-1.581-2.186-3.314.41-4.99 2.595-1.675 3.981-.548 4.939-3.855.957-3.308 1.984-4.6 1.984-4.6Z" fill="#2E353A"/><path d="M47.338 28.041c-5.998 2.59-4.259 26.045 1.7 27.6 5.96 1.557 13.533-9.978 13.533-9.978l-3.553-3.49s-5.67 5.291-6.854 5.178c-1.185-.113-1.953-11.41-2.28-13.81-.656-4.825-2.546-5.5-2.546-5.5ZM22.346 55.175s19.53-2.601 21.017 1.506c.283.8.63 5.506.825 6.842.195 1.336.378 2.312.378 2.312.63-.145 17.678-4.857 25.408 0 5.6 3.528 11.97 28.577 15.504 43.735l-5.38 1.89c-6.092-13.18-15.536-32.88-17.64-32.962-3.181-.126-35.601 13.747-43.728 6.054-8.127-7.692 3.616-29.377 3.616-29.377Z" fill="#2196F3"/><path opacity=".6" d="M22.346 55.175s19.53-2.601 21.017 1.506c.283.8.63 5.506.825 6.842.195 1.336.378 2.312.378 2.312.63-.145 17.678-4.857 25.408 0 5.6 3.528 11.97 28.577 15.504 43.735l-5.38 1.89c-6.092-13.18-15.536-32.88-17.64-32.962-3.181-.126-35.601 13.747-43.728 6.054-8.127-7.692 3.616-29.377 3.616-29.377Z" fill="#fff"/><path d="M66.08 141.523a5.835 5.835 0 0 0-1.82-.945s-1.972-1.852-2.88-7.402l-2.601-.63a2.301 2.301 0 0 0-2.382.844 1.02 1.02 0 0 0-.17.315 13.572 13.572 0 0 0-.296 1.802 45.883 45.883 0 0 0-.094 6.079h.472l.22-3.817c.083-1.298 1.135.233 1.424 1.631.29 1.399.927 2.892 3.982 2.987 3.56.056 5.04-.045 4.145-.864Z" fill="#2E353A"/><path d="M56.303 133.409c-.158-1.298-.19-3.553-.19-3.553l5.79.63s-.724 2.558-.17 4.485a78.312 78.312 0 0 1-5.43-1.562Z" fill="#2E353A"/><path d="M57.506 122.542c1.74-15.946 3.963-32.288 4.102-33.39-.599.245-20.658-2.602-29.61-3.012 0 0 14.792-2.482 22.881-6.11 2.104-.946 7.995-3.982 7.995-3.982s11.938.592 12.102 6.671c.101 4.039-6.716 26.46-11.308 41.076l-6.162-1.253Z" fill="#2196F3"/><path opacity=".5" d="M57.506 122.542c1.74-15.946 3.963-32.288 4.102-33.39-.599.245-20.658-2.602-29.61-3.012 0 0 14.792-2.482 22.881-6.11 2.104-.946 7.995-3.982 7.995-3.982s11.938.592 12.102 6.671c.101 4.039-6.716 26.46-11.308 41.076l-6.162-1.253Z" fill="#fff"/><path d="m42.424 90.953-.208 8.959-.945 41.901H38.16l-.939-41.901-.208-8.959h5.412Z" fill="#263238"/><path opacity=".1" d="m42.424 90.953-.208 8.959-.945 41.901H38.16l-.939-41.901-.208-8.959h5.412Z" fill="#fff"/><path opacity=".2" d="m42.424 90.953-.208 9.204H37.22l-.208-9.204h5.412Z" fill="#000"/><path d="m32.722 90.953-.208 8.959-.945 41.901h-3.112l-.939-41.901-.207-8.959h5.411Z" fill="#263238"/><path opacity=".2" d="m32.722 90.953-.208 8.959-.945 41.901h-3.112l-.939-41.901-.207-8.959h5.411Z" fill="#fff"/><path opacity=".2" d="m32.722 90.953-.208 9.204h-4.996l-.207-9.204h5.411Z" fill="#000"/><path d="m59.327 141.668-2.873-50.085h-4.7l4.02 50.085h3.553Z" fill="#263238"/><path opacity=".2" d="M55.767 141.668h3.554l-2.609-45.713-.258-4.428h-4.7l.36 4.428 3.653 45.713Z" fill="#fff"/><path opacity=".2" d="m51.754 91.527.36 4.605h4.598l-.258-4.605h-4.7Z" fill="#000"/><path d="m12.978 141.668 4.026-50.085h-4.7l-2.88 50.085h3.554Z" fill="#263238"/><path opacity=".1" d="m12.984 141.668 3.654-45.713.36-4.428h-4.7l-.259 4.428-2.608 45.713h3.553Z" fill="#fff"/><path opacity=".2" d="m16.997 91.527-.359 4.605H12.04l.258-4.605h4.7Z" fill="#000"/><path d="M9.784 93.272h49.19v-3.579a3.15 3.15 0 0 0-3.15-3.15h-42.89a3.15 3.15 0 0 0-3.15 3.15v3.579Z" fill="#2196F3"/><path d="M59.548 93.272H9.204c-.7 0-1.266-.567-1.266-1.267v-.831c0-.7.567-1.267 1.266-1.267h50.344c.699 0 1.266.568 1.266 1.267v.831c0 .7-.567 1.267-1.266 1.267Z" fill="#263238"/><path opacity=".4" d="M59.548 93.272H9.204c-.7 0-1.266-.567-1.266-1.267v-.831c0-.7.567-1.267 1.266-1.267h50.344c.699 0 1.266.568 1.266 1.267v.831c0 .7-.567 1.267-1.266 1.267Z" fill="#fff"/><path d="m37.012 52.353-1.663-13.47a2.96 2.96 0 0 0-2.96-2.96h-3.964l1.664 19.391h3.962a2.953 2.953 0 0 0 2.961-2.96Z" fill="#2196F3"/><path d="m33.346 90.059-7.062-51.572 3.597-.492 7.132 52.076-3.667-.012Zm-22.523.012L3.755 38.487l3.603-.492 7.126 52.076h-3.66Z" fill="#263238"/><path opacity=".2" d="m33.346 90.059-7.062-51.572 3.597-.492 7.132 52.076-3.667-.012Zm-22.523.012L3.755 38.487l3.603-.492 7.126 52.076h-3.66Z" fill="#fff"/><path d="M34.92 55.642H2.584L0 35.475h32.338l2.583 20.167Z" fill="#263238"/><path opacity=".6" d="M34.92 55.642H2.584L0 35.475h32.338l2.583 20.167Z" fill="#fff"/><path d="M92.614 1.323H89.26v8.343h1.223V7.145h2.12c2.235 0 3.586-1.097 3.586-2.905 0-1.82-1.351-2.917-3.575-2.917Zm-.035 4.782h-2.096V2.363h2.084c1.572 0 2.387.678 2.387 1.865.012 1.199-.815 1.877-2.375 1.877Zm17.687-4.782h-1.222v8.343h1.222V1.323Zm9.048 6.217-5.159-6.217h-1.001v8.343h1.223V3.448l5.158 6.218h1.001V1.323h-1.222V7.54Zm2.864-6.217v1.04h2.946v7.303h1.211V2.363h2.946v-1.04h-7.103Z" fill="#00325A"/><path d="M97.47 5.427c0 2.306 1.84 4.33 4.191 4.635V8.954c-1.385-.238-2.538-1.244-2.922-2.567l-.047-.17.152.091c.174.113.384.181.593.181.594 0 1.095-.486 1.095-1.062 0-.577-.501-1.063-1.095-1.063-.21 0-.419.056-.593.18l-.152.091.047-.17A3.71 3.71 0 0 1 101.66 1.9V.791c-2.352.306-4.192 2.33-4.192 4.636Zm5.449-4.636V1.9c1.397.238 2.538 1.244 2.923 2.567l.046.17-.151-.103a1.182 1.182 0 0 0-.606-.18c-.594 0-1.094.486-1.094 1.062 0 .577.5 1.063 1.094 1.063.21 0 .419-.068.606-.181l.151-.102-.046.17c-.385 1.323-1.537 2.329-2.923 2.566v1.13c2.352-.305 4.192-2.328 4.192-4.634 0-2.307-1.828-4.33-4.192-4.636Z" fill="#2F99EF"/></svg>