<svg width="22" height="22" fill="none" xmlns="http://www.w3.org/2000/svg"><path d="M17.725 10.323h-1.136a5.485 5.485 0 0 1-.794 2.839l.851.851c.681-1.135 1.022-2.384 1.079-3.69Zm-2.839 0V5.78a3.915 3.915 0 0 0-4.03-3.918c-1.647 0-3.18 1.079-3.691 2.668l7.38 7.381c.228-.51.341-1.078.341-1.59Zm.114 5.45 3.917 3.918.795-.795L2.963 2.146l-.795.796 4.77 4.769v2.612a3.95 3.95 0 0 0 3.974 3.974c.738 0 1.42-.17 2.044-.568l1.249 1.25c-.965.68-2.1 1.021-3.293 1.021-3.066.114-5.564-2.328-5.678-5.337v-.34H4.1c.056 3.52 2.725 6.472 6.245 6.813v1.703H8.641c-.34 0-.568.227-.568.568 0 .34.227.568.568.568h4.542c.34 0 .568-.227.568-.568 0-.34-.227-.568-.568-.568H11.48v-1.703c1.249-.114 2.498-.568 3.52-1.363Z" fill="#fff"/></svg>