<svg width="18" height="9" fill="none" xmlns="http://www.w3.org/2000/svg"><path d="M1.921 3.717A10.465 10.465 0 0 1 9.323.662a10.507 10.507 0 0 1 7.408 3.07 3.129 3.129 0 0 1 .004 4.423 2.67 2.67 0 0 1-.403.336c-.135.1-.28.187-.433.26a.68.68 0 0 1-.673-.05l-3.546-2.23a.682.682 0 0 1-.318-.567c-.005-.13-.005-.14.278-1.038a6.74 6.74 0 0 0-4.693-.014c.285.909.285.918.28 1.048a.679.679 0 0 1-.317.567L3.37 8.69a.679.679 0 0 1-.659.033 2.96 2.96 0 0 1-.837-.597 3.134 3.134 0 0 1-.885-2.217c.01-.826.345-1.614.933-2.192Z" fill="#fff"/></svg>