<svg width="21" height="22" fill="none" xmlns="http://www.w3.org/2000/svg"><mask id="a" fill="#fff"><path d="M2.4 8.016v5.749h3.194l5.11 3.832V4.184l-5.11 3.832H2.4Z"/></mask><path d="M2.4 8.016V-.16a8.176 8.176 0 0 0-8.176 8.176H2.4Zm0 5.749h-8.176A8.176 8.176 0 0 0 2.4 21.94v-8.175Zm3.194 0 4.905-6.541a8.176 8.176 0 0 0-4.905-1.635v8.176Zm5.11 3.832-4.906 6.54a8.176 8.176 0 0 0 13.082-6.54h-8.176Zm0-13.413h8.176A8.176 8.176 0 0 0 5.798-2.357l4.906 6.54Zm-5.11 3.832v8.176c1.769 0 3.49-.574 4.905-1.635L5.594 8.016Zm-11.37 0v5.749h16.352V8.016H-5.776ZM2.4 21.941h3.194V5.588H2.4V21.94ZM.688 20.305l5.11 3.833 9.811-13.082-5.11-3.832L.69 20.305Zm18.192-2.708V4.184H2.528v13.413H18.88ZM5.798-2.357.688 1.475 10.5 14.557l5.11-3.833L5.8-2.357ZM5.594-.16H2.4v16.352h3.194V-.16Z" fill="#fff" mask="url(#a)"/><path d="M15.175 4.822c2.555 1.278 3.832 3.194 3.832 6.068 0 2.875-1.277 4.79-3.832 6.068m-1.277-8.303s1.277.639 1.277 2.235a2.537 2.537 0 0 1-1.277 2.236V8.655Z" stroke="#fff" stroke-width="1.916" stroke-linecap="round" stroke-linejoin="round"/></svg>