<svg width="14" height="14" fill="none" xmlns="http://www.w3.org/2000/svg"><path d="M10.462 13.614a10.465 10.465 0 0 1-7.394-3.075A10.507 10.507 0 0 1 0 3.131c0-.83.33-1.627.915-2.214A3.122 3.122 0 0 1 3.125 0c.175-.001.35.015.523.048.167.024.33.065.49.122a.68.68 0 0 1 .44.51l.931 4.085a.682.682 0 0 1-.176.626c-.089.095-.095.102-.93.538A6.739 6.739 0 0 0 7.71 9.257c.442-.844.449-.85.544-.939a.68.68 0 0 1 .625-.177l4.076.933a.68.68 0 0 1 .489.442 2.958 2.958 0 0 1 .17 1.014 3.134 3.134 0 0 1-.942 2.193 3.122 3.122 0 0 1-2.21.89Z" fill="#fff"/></svg>