<svg width="264" height="43" fill="none" xmlns="http://www.w3.org/2000/svg"><path d="M2.177 1.458c2.81 3.177 5.75 6.52 10.334 8.71 5.43 2.596 11.47 4.508 17.87 5.734 21.377 4.094 43.519 2.974 65.463 3.453 20.981.457 41.958.348 62.95.348 7.836 0 15.635.021 23.464.222 9.74.249 19.323 1.332 29.033 1.916 6.168.371 12.386.675 18.44 1.6 3.057.467 6.555 2.084 9.243 3.12 3.372 1.3 5.924 3.17 9.196 4.545 2.44 1.025 4.938 2.049 6.992 3.422 2.98 1.99 5.086 4.8 6.826 7.127" stroke="#fff" stroke-width="2.665" stroke-linecap="round" stroke-dasharray="5.33 5.33"/></svg>