<svg width="21" height="22" viewBox="0 0 21 22" fill="none" xmlns="http://www.w3.org/2000/svg">
<mask id="path-1-inside-1_1_36" fill="white">
<path d="M2.4003 8.01602V13.7646H5.59398L10.7039 17.5971V4.18359L5.59398 8.01602H2.4003Z"/>
</mask>
<path d="M2.4003 8.01602V-0.15982C-2.11509 -0.15982 -5.77554 3.50063 -5.77554 8.01602H2.4003ZM2.4003 13.7646H-5.77554C-5.77554 18.28 -2.11509 21.9405 2.4003 21.9405L2.4003 13.7646ZM5.59398 13.7646L10.4995 7.22398C9.08428 6.16258 7.36299 5.58881 5.59398 5.58881V13.7646ZM10.7039 17.5971L5.79838 24.1377C8.2758 25.9958 11.5904 26.2947 14.3602 24.9098C17.1301 23.5248 18.8797 20.6938 18.8797 17.5971H10.7039ZM10.7039 4.18359H18.8797C18.8797 1.08682 17.1301 -1.74417 14.3602 -3.1291C11.5904 -4.51402 8.2758 -4.21514 5.79838 -2.35707L10.7039 4.18359ZM5.59398 8.01602V16.1919C7.36299 16.1919 9.08428 15.6181 10.4995 14.5567L5.59398 8.01602ZM-5.77554 8.01602V13.7646H10.5761V8.01602H-5.77554ZM2.4003 21.9405H5.59398V5.58881H2.4003V21.9405ZM0.688483 20.3053L5.79838 24.1377L15.6094 11.0564L10.4995 7.22398L0.688483 20.3053ZM18.8797 17.5971V4.18359H2.52804V17.5971H18.8797ZM5.79838 -2.35707L0.688483 1.47535L10.4995 14.5567L15.6094 10.7243L5.79838 -2.35707ZM5.59398 -0.15982H2.4003V16.1919H5.59398V-0.15982Z" fill="white" mask="url(#path-1-inside-1_1_36)"/>
<path d="M15.175 4.82239C17.7299 6.09986 19.0074 8.01607 19.0074 10.8904C19.0074 13.7647 17.7299 15.6809 15.175 16.9584M13.8975 8.65481C13.8975 8.65481 15.175 9.29355 15.175 10.8904C15.175 12.4872 13.8975 13.126 13.8975 13.126V8.65481Z" stroke="white" stroke-width="1.91621" stroke-linecap="round" stroke-linejoin="round"/>
</svg>
