<svg width="14" height="14" viewBox="0 0 14 14" fill="none" xmlns="http://www.w3.org/2000/svg">
<path d="M10.4617 13.6137C7.68822 13.6101 5.02932 12.5046 3.06814 10.5395C1.10696 8.57442 0.00359395 5.91025 -5.4748e-07 3.13122C-4.02283e-07 2.30079 0.329233 1.50437 0.915272 0.917168C1.50131 0.329965 2.29615 7.82e-05 3.12494 7.83449e-05C3.30044 -0.00126107 3.47564 0.0146983 3.64802 0.0477262C3.81467 0.0724353 3.9785 0.113473 4.13714 0.170249C4.24872 0.209477 4.34815 0.277207 4.42559 0.366743C4.50304 0.45628 4.55582 0.56452 4.57871 0.680761L5.5094 4.76486C5.53448 4.87572 5.53146 4.9911 5.50061 5.10049C5.46976 5.20988 5.41206 5.30978 5.33277 5.39109C5.24446 5.48638 5.23766 5.49319 4.40208 5.92883C5.07122 7.39968 6.24525 8.58087 7.71044 9.25736C8.15201 8.41332 8.1588 8.40651 8.2539 8.31802C8.33505 8.23858 8.43475 8.18076 8.54392 8.14985C8.65309 8.11894 8.76825 8.11591 8.87889 8.14105L12.9549 9.07358C13.0672 9.09969 13.171 9.154 13.2566 9.2314C13.3421 9.3088 13.4067 9.40675 13.444 9.51602C13.5014 9.67759 13.5445 9.84385 13.5731 10.0129C13.6004 10.184 13.6141 10.357 13.6138 10.5302C13.6013 11.3571 13.2628 12.1455 12.6723 12.7232C12.0817 13.3009 11.287 13.621 10.4617 13.6137Z" fill="white"/>
</svg>
